<?xml version="1.0" encoding="UTF-8"?>
<svg xmlns="http://www.w3.org/2000/svg" xmlns:xlink="http://www.w3.org/1999/xlink" width="34px" height="34px"
     viewBox="0 0 34 34" version="1.1">
    <g id="surface1">
        <path style=" stroke:none;fill-rule:evenodd;fill:rgb(81.568627%,67.45098%,42.352941%);fill-opacity:1;"
              d="M 9.421875 6.335938 L 9 7.667969 L 9 8.214844 L 11 11.546875 L 13 14.875 L 8.917969 14.941406 L 4.839844 15.011719 L 3.871094 16.003906 L 2.898438 17 L 3.871094 17.996094 L 4.839844 18.988281 L 8.917969 19.058594 L 13 19.125 L 11 22.453125 L 9 25.785156 L 9 26.332031 L 9.421875 27.664062 L 9.839844 29 L 10.332031 29 L 13.035156 28.148438 L 16.871094 21.75 L 17.128906 21.75 L 20.964844 28.148438 L 23.667969 29 L 24.160156 29 L 24.578125 27.664062 L 25 26.332031 L 25 25.785156 L 23 22.453125 L 21 19.125 L 25.082031 19.058594 L 29.160156 18.988281 L 30.128906 17.996094 L 31.101562 17 L 30.128906 16.003906 L 29.160156 15.011719 L 25.082031 14.941406 L 21 14.875 L 23 11.546875 L 25 8.214844 L 25 7.667969 L 24.578125 6.335938 L 24.160156 5 L 23.667969 5 L 20.964844 5.851562 L 17.128906 12.25 L 16.871094 12.25 L 13.035156 5.851562 L 10.332031 5 L 9.839844 5 L 9.421875 6.335938 "/>
    </g>
</svg>
