<?xml version="1.0" encoding="UTF-8"?>
<svg xmlns="http://www.w3.org/2000/svg" xmlns:xlink="http://www.w3.org/1999/xlink" width="34px" height="34px"
     viewBox="0 0 34 34" version="1.1">
    <g id="surface1">
        <path style=" stroke:none;fill-rule:evenodd;fill:rgb(80%,67.45098%,42.352941%);fill-opacity:1;"
              d="M 14.875 3 L 12.886719 5 L 21.113281 5 L 17.136719 1 L 16.863281 1 L 14.875 3 M 2.871094 15.003906 L 0.882812 17.003906 L 5 21.121094 L 5 13 L 4.863281 13 L 2.871094 15.003906 M 14.871094 15.003906 L 12.882812 17.003906 L 17 21.121094 L 21.117188 17.003906 L 19.128906 15.003906 L 17.136719 13 L 16.863281 13 L 14.871094 15.003906 M 29 17 L 29 21.121094 L 31.058594 19.058594 L 33.121094 17 L 31.058594 14.941406 L 29 12.878906 L 29 17 M 14.941406 31.058594 L 17 33.121094 L 19.058594 31.058594 L 21.121094 29 L 12.878906 29 L 14.941406 31.058594 "/>
    </g>
</svg>
